<svg height="50" width="50" xmlns="http://www.w3.org/2000/svg"><path d="m25 1.7c-12.9 0-23.3 10.4-23.3 23.3s10.4 23.3 23.3 23.3 23.3-10.5 23.3-23.3c0-12.9-10.4-23.3-23.3-23.3zm8.3 23.3c0 .3-.1.5-.4.7l-8.3 5.4c-.4.2-.9.1-1.1-.2s-.1-.9.2-1.2l7.3-4.7-9.3-6v13.5c0 .5-.4.8-.8.8s-.9-.3-.9-.8v-15c0-.5.4-.8.8-.8.2 0 .3 0 .5.1l11.7 7.5c.2.2.4.4.3.7z" fill="none"/><g fill="#fff"><path d="m21.3 16.8c-.1-.1-.3-.1-.5-.1-.5 0-.8.4-.8.8v15c0 .5.4.8.8.8s.8-.4.8-.8v-13.5l9.3 6-7.3 4.7c-.4.2-.5.8-.2 1.2s.8.5 1.1.2l8.3-5.4c.2-.2.4-.4.4-.7s-.1-.5-.4-.7z"/><path d="m25 0c-13.8 0-25 11.2-25 25s11.2 25 25 25 25-11.2 25-25-11.2-25-25-25zm0 48.3c-12.9 0-23.3-10.4-23.3-23.3s10.4-23.3 23.3-23.3 23.3 10.4 23.3 23.3-10.4 23.3-23.3 23.3z"/></g></svg>