<svg xmlns="http://www.w3.org/2000/svg" width="50" height="50"><path d="M25 1.7C12.1 1.7 1.7 12.1 1.7 25S12.1 48.3 25 48.3 48.3 37.8 48.3 25C48.3 12.1 37.9 1.7 25 1.7zM33.3 25c0 .3-.1.5-.4.7l-8.3 5.4c-.4.2-.9.1-1.1-.2s-.1-.9.2-1.2L31 25l-9.3-6v13.5c0 .5-.4.8-.8.8s-.9-.3-.9-.8v-15c0-.5.4-.8.8-.8.2 0 .3 0 .5.1L33 24.3c.2.2.4.4.3.7z" fill="none"/><path d="M21.3 16.8c-.1-.1-.3-.1-.5-.1-.5 0-.8.4-.8.8v15c0 .5.4.8.8.8s.8-.4.8-.8V19l9.3 6-7.3 4.7c-.4.2-.5.8-.2 1.2s.8.5 1.1.2l8.3-5.4c.2-.2.4-.4.4-.7 0-.3-.1-.5-.4-.7l-11.5-7.5z" fill="#fff"/><path d="M25 0C11.2 0 0 11.2 0 25s11.2 25 25 25 25-11.2 25-25S38.8 0 25 0zm0 48.3C12.1 48.3 1.7 37.9 1.7 25S12.1 1.7 25 1.7 48.3 12.1 48.3 25 37.9 48.3 25 48.3z" opacity=".5" fill="#fff"/></svg>