<?xml version="1.0" encoding="utf-8"?>
<!-- Generator: Adobe Illustrator 20.1.0, SVG Export Plug-In . SVG Version: 6.00 Build 0)  -->
<svg version="1.1" id="Layer_1" xmlns="http://www.w3.org/2000/svg" xmlns:xlink="http://www.w3.org/1999/xlink" x="0px" y="0px"
	 width="28.2px" height="29.9px" viewBox="0 0 28.2 29.9" style="enable-background:new 0 0 28.2 29.9;" xml:space="preserve">
<style type="text/css">
	.st0{fill:#333333;}
</style>
<g>
	<path class="st0" d="M14,2.8c0.3,0.6,0.7,1.3,0.8,1.9c0.7,2.9,0.2,5.5-2.1,7.6c-0.3,0.3-0.7,0.6-0.9,1c-0.2,0.4-0.3,0.9,0,1.3
		c0.4,0.7,1,1.3,1.6,1.8c3.3,2.5,3.3,7,2,9.4c-1,1.8-2.5,3-4.5,3.5c-2.7,0.7-5.3,0.4-7.8-0.9c-3-1.6-3.9-4.8-2.2-7.7
		c1.4-2.4,3.5-3.6,6.3-3.9c0.3,0,0.6,0,0.8-0.1c0.2-0.2-0.1-0.5-0.1-0.7c-0.1-0.5-0.2-1-0.1-1.6c0.1-0.2,0-0.3-0.3-0.3
		C4.2,14,2.2,11.4,1.7,8.3C1.1,4.8,3.6,1.2,7.1,0.2C7.6,0.1,8.2,0,8.8,0c2.4,0,4.8,0,7.1,0c0.4,0,0.7,0.1,0.8,0.5
		c0.1,0.4-0.1,0.7-0.3,0.9c-0.5,0.4-1,0.8-1.5,1.3C14.7,2.8,14.3,2.8,14,2.8z M8.5,27.1c0.9,0,1.7-0.1,2.6-0.5
		c2.4-0.9,2.6-4.5,1-5.7c-0.5-0.4-0.9-0.8-1.4-1.2c-0.3-0.2-0.6-0.4-0.9-0.4c-1.3-0.2-2.5-0.1-3.6,0.5c-2,1.1-2.8,3.1-1.7,5
		C5.2,26.5,6.7,27.1,8.5,27.1z M5.5,6.3c0,0.4,0,0.8,0.1,1.2c0.3,1.5,0.8,2.8,2,3.8c1.3,1.1,2.7,0.8,3.4-0.8c0.5-1,0.5-2.1,0.4-3.3
		C11,5.8,10.6,4.5,9.5,3.4c-1.4-1.4-3.1-1-3.7,0.9C5.5,5,5.4,5.6,5.5,6.3z"/>
	<path class="st0" d="M23.3,17.6c0,0.7,0,1.5,0,2.2c0,0.7-0.2,0.9-0.9,0.9c-0.3,0-0.5,0-0.7,0c-0.5,0-0.8-0.3-0.8-0.8
		c0-1.5,0-2.9,0-4.4c0-0.4-0.1-0.5-0.5-0.5c-1.2,0-2.3,0-3.5,0c-0.6,0-0.8-0.2-0.8-0.8c0-0.4,0-0.8,0-1.2c0-0.6,0.2-0.8,0.9-0.8
		c1.2,0,2.3,0,3.5,0c0.3,0,0.4-0.1,0.4-0.4c0-1.5,0-2.9,0-4.4c0-0.7,0.2-0.9,0.9-0.9c1.5,0,1.5,0,1.5,1.5c0,1.3,0,2.5,0,3.8
		c0,0.4,0.1,0.4,0.4,0.4c1.2,0,2.3,0,3.5,0c0.7,0,0.9,0.2,0.9,0.9c0,0.4,0,0.7,0,1.1c0,0.6-0.2,0.8-0.8,0.8c-1.2,0-2.4,0-3.6,0
		c-0.3,0-0.4,0.1-0.4,0.4C23.4,16.1,23.3,16.8,23.3,17.6z"/>
</g>
</svg>
