<?xml version="1.0" encoding="utf-8"?>
<!-- Generator: Adobe Illustrator 19.1.0, SVG Export Plug-In . SVG Version: 6.00 Build 0)  -->
<svg version="1.0" xmlns="http://www.w3.org/2000/svg" xmlns:xlink="http://www.w3.org/1999/xlink" x="0px" y="0px"
	 viewBox="0 0 15.4 20.4" style="enable-background:new 0 0 15.4 20.4;" xml:space="preserve">
<style type="text/css">
	.st0{fill:#F2F2F2;}
	.st1{fill:#E6E6E6;}
	.st2{fill:#323333;}
</style>
<g id="レイヤー_1">
</g>
<g id="レイヤー_2">
</g>
<g id="main1">
</g>
<g id="main2">
</g>
<g id="レイヤー_3">
	<rect x="-957.2" y="-508.1" class="st0" width="1586" height="261.1"/>
	<rect x="1235.8" y="-6485" class="st1" width="786.1" height="183"/>
	<g>
		<path class="st2" d="M1.4,1.5C0.9,2,0.1,3.2,0,4c-0.3,2.5,1.1,6.3,2.9,9.3c1.8,3,4.4,6,6.8,7c0.7,0.3,2.2,0.2,2.9,0
			c1.4-0.4,2.3-1.1,2.6-1.8c0.2-0.6,0.1-1.5-1.1-2.4c-1-0.7-2.1-1.2-2.8-0.8c-0.7,0.4-0.6,1.1-0.8,1.7c-0.1,0.5-0.6,1-1.6,0.5
			c-1-0.5-2.6-3-4-5.4C3.6,9.7,2.2,7.1,2.2,6c0-1.1,0.6-1.3,1.2-1.2C4,4.9,4.5,5.3,5.2,4.9C5.9,4.5,6,3.3,5.9,2.1
			C5.6,0.7,4.9,0.1,4.3,0C3.5-0.1,2.5,0.4,1.4,1.5z"/>
	</g>
</g>
<g id="指示">
</g>
</svg>
